<svg xmlns="http://www.w3.org/2000/svg" width="28" height="22.4" viewBox="0 0 28 22.4">
  <path id="Icon_awesome-chalkboard-teacher" data-name="Icon awesome-chalkboard-teacher" d="M9.1,15.4a1,1,0,0,0-.309.048A5.771,5.771,0,0,1,7,15.75a5.776,5.776,0,0,1-1.792-.3A1,1,0,0,0,4.9,15.4,4.9,4.9,0,0,0,0,20.327,2.1,2.1,0,0,0,2.1,22.4h9.8A2.1,2.1,0,0,0,14,20.327,4.9,4.9,0,0,0,9.1,15.4ZM7,14A4.2,4.2,0,1,0,2.8,9.8,4.2,4.2,0,0,0,7,14ZM25.9,0H9.1A2.138,2.138,0,0,0,7,2.17V4.2a5.536,5.536,0,0,1,2.8.779V2.8H25.2V15.4H22.4V12.6H16.8v2.8H13.464A5.576,5.576,0,0,1,15.2,18.2H25.9A2.138,2.138,0,0,0,28,16.03V2.17A2.138,2.138,0,0,0,25.9,0Z" transform="translate(0)" fill="rgba(2,49,116,0.9)"/>
</svg>
