<svg xmlns="http://www.w3.org/2000/svg" width="28.383" height="22.828" viewBox="0 0 28.383 22.828">
  <path id="Icon_metro-paper-plane" data-name="Icon metro-paper-plane" d="M31.322,5.605,4.088,15.2c-.438.154-.535.532-.015.739l5.855,2.346,3.47,1.39S30.115,7.4,30.341,7.236s.491.147.325.325-12.14,13.131-12.14,13.131v0l-.7.776.924.5s7.172,3.862,7.684,4.137a.786.786,0,0,0,1.16-.515c.153-.657,4.388-18.912,4.482-19.319.122-.529-.228-.851-.757-.665ZM13.368,28.014c0,.379.214.486.511.217.387-.353,4.4-3.95,4.4-3.95l-4.906-2.536v6.268Z" transform="translate(-3.72 -5.552)" fill="#fff"/>
</svg>
