<svg id="Group_251" data-name="Group 251" xmlns="http://www.w3.org/2000/svg" width="149.854" height="79.207" viewBox="0 0 149.854 79.207">
  <g id="Group_244" data-name="Group 244">
    <g id="Group_242" data-name="Group 242">
      <path id="Path_131" data-name="Path 131" d="M523.981,73.693l-13.594-8.563c-.828-.522-.765-1.252.141-1.622L526.443,57c.906-.371,1.464.105,1.238,1.058l-3.7,15.634" transform="translate(-479.899 -47.895)" fill="#fff"/>
      <path id="Path_132" data-name="Path 132" d="M463.085,55.967l3.236-1.323,5.753-2.352,3.236-1.323,11.211-4.584c.89-.364,1.419-1.149,1.175-1.745l-2.368-5.791c-.244-.6-1.172-.787-2.061-.423l-11.211,4.585-3.236,1.323-5.754,2.352-3.236,1.324-11.211,4.584c-.89.363-1.418,1.149-1.174,1.745l2.368,5.792c.244.6,1.171.787,2.061.423Z" transform="translate(-447.197 -38.132)" fill="#fff"/>
      <path id="Path_133" data-name="Path 133" d="M521.664,46.943c-.133-.328-.353-.864-.487-1.192l-.867-2.119-.487-1.192-1.688-4.129c-.134-.328-.732-.4-1.328-.153l-5.791,2.368c-.6.244-.975.711-.841,1.039l1.689,4.129c.134.328.353.865.487,1.192l.867,2.119c.134.328.353.864.487,1.192l1.688,4.129c.134.328.732.4,1.328.152l5.791-2.368c.6-.244.975-.712.841-1.039Z" transform="translate(-480.078 -38.013)" fill="#fff"/>
      <path id="Path_134" data-name="Path 134" d="M462.159,82.066l-.981-2.4L459.434,75.4l-.981-2.4-3.4-8.312a1.242,1.242,0,0,0-1.575-.757L447.688,66.3a1.242,1.242,0,0,0-.593,1.643l3.4,8.313c.27.659.711,1.739.98,2.4l1.745,4.266.981,2.4,3.4,8.313a1.243,1.243,0,0,0,1.575.756l5.792-2.369a1.241,1.241,0,0,0,.593-1.642Z" transform="translate(-446.989 -51.552)" fill="#fff"/>
    </g>
    <g id="Group_243" data-name="Group 243" transform="translate(12.751 45.837)">
      <path id="Path_135" data-name="Path 135" d="M477.72,134.289l13.486,8.731c.822.532.749,1.261-.161,1.621l-15.994,6.309c-.91.359-1.461-.124-1.224-1.073l3.893-15.587" transform="translate(-473.772 -134.289)" fill="#fff"/>
      <path id="Path_136" data-name="Path 136" d="M511.706,174.485,515,173.139l5.853-2.393,3.293-1.346,11.4-4.664c.906-.37,1.447-1.161,1.2-1.757l-2.368-5.792c-.244-.6-1.184-.781-2.089-.411l-11.407,4.664-3.291,1.346-5.853,2.394-3.293,1.346-11.405,4.664c-.905.369-1.447,1.161-1.2,1.756l2.369,5.792c.244.6,1.184.782,2.089.411Z" transform="translate(-485.304 -145.97)" fill="#fff"/>
      <path id="Path_137" data-name="Path 137" d="M567.727,156.917l-.362-.886-.645-1.576-.362-.887L565.1,150.5c-.1-.244-.668-.244-1.266,0l-5.791,2.369c-.6.243-1,.642-.9.886l1.256,3.071.363.887.644,1.575c.1.245.264.644.363.887l1.255,3.072c.1.243.669.243,1.266,0l5.792-2.369c.6-.244,1-.643.9-.886Z" transform="translate(-517.442 -142.684)" fill="#fff"/>
      <path id="Path_138" data-name="Path 138" d="M497.5,169.719c-.193-.47-.507-1.239-.7-1.71l-1.244-3.04-.7-1.709-2.422-5.923a1.074,1.074,0,0,0-1.434-.412l-5.791,2.369a1.072,1.072,0,0,0-.735,1.3l2.422,5.923c.192.47.507,1.24.7,1.71l1.243,3.04.7,1.709,2.423,5.924a1.072,1.072,0,0,0,1.433.411l5.792-2.368a1.072,1.072,0,0,0,.734-1.3Z" transform="translate(-479.354 -146.092)" fill="#fff"/>
    </g>
  </g>
  <g id="Group_245" data-name="Group 245" transform="translate(33.725 28.215)">
    <rect id="Rectangle_60" data-name="Rectangle 60" width="18.31" height="5.941" rx="2.473" fill="#fff"/>
    <rect id="Rectangle_61" data-name="Rectangle 61" width="22.944" height="5.941" rx="2.476" transform="translate(0 10.056)" fill="#fff"/>
    <rect id="Rectangle_62" data-name="Rectangle 62" width="14.472" height="5.94" rx="2.628" transform="translate(0 22.658)" fill="#fff"/>
    <rect id="Rectangle_63" data-name="Rectangle 63" width="5.94" height="16.763" rx="2.58" transform="translate(8.502 10.388)" fill="#fff"/>
  </g>
  <g id="Group_246" data-name="Group 246" transform="translate(64.802 26.681)">
    <rect id="Rectangle_64" data-name="Rectangle 64" width="5.941" height="8.981" rx="2.115" transform="translate(0 3.228) rotate(-32.912)" fill="#fff"/>
    <rect id="Rectangle_65" data-name="Rectangle 65" width="18.076" height="5.941" rx="2.322" transform="translate(2.439 24.071)" fill="#fff"/>
    <rect id="Rectangle_66" data-name="Rectangle 66" width="5.941" height="22.951" rx="2.68" transform="translate(14.574 5.066)" fill="#fff"/>
  </g>
  <g id="Group_247" data-name="Group 247" transform="translate(100.352 28.065)">
    <rect id="Rectangle_67" data-name="Rectangle 67" width="5.941" height="15.825" rx="2.68" transform="translate(0.301)" fill="#fff"/>
    <rect id="Rectangle_68" data-name="Rectangle 68" width="16.67" height="5.941" rx="2.68" transform="translate(0 22.966)" fill="#fff"/>
    <rect id="Rectangle_69" data-name="Rectangle 69" width="5.94" height="28.907" rx="2.667" transform="translate(12.678 0.001)" fill="#fff"/>
  </g>
  <g id="Group_248" data-name="Group 248" transform="translate(67.426 62.372)">
    <path id="Path_139" data-name="Path 139" d="M589.668,174.214v-.245a.837.837,0,0,0,.225-.069.277.277,0,0,0,.123-.121.52.52,0,0,0,.051-.2c.007-.08.01-.18.01-.3v-3.7H589.8a.732.732,0,0,0-.31.052.482.482,0,0,0-.188.163,1.04,1.04,0,0,0-.137.3q-.058.187-.095.355h-.463v-1.3h3.974v1.3h-.463c-.043-.169-.076-.292-.1-.372a1.09,1.09,0,0,0-.082-.2.707.707,0,0,0-.1-.139.442.442,0,0,0-.108-.089.451.451,0,0,0-.143-.05,1.194,1.194,0,0,0-.225-.017h-.243v3.7c0,.131,0,.231.01.3a.56.56,0,0,0,.037.165.308.308,0,0,0,.066.1.364.364,0,0,0,.108.071.746.746,0,0,0,.187.05v.245Z" transform="translate(-588.611 -169.085)" fill="#fff"/>
    <path id="Path_140" data-name="Path 140" d="M605.376,169.145v1.181h-.462a2.364,2.364,0,0,0-.19-.477.631.631,0,0,0-.185-.2.7.7,0,0,0-.368-.072h-.736v1.783h.446a.492.492,0,0,0,.233-.047.354.354,0,0,0,.14-.154,1.5,1.5,0,0,0,.107-.334h.381v1.507h-.381a1.48,1.48,0,0,0-.1-.329.394.394,0,0,0-.137-.161.47.47,0,0,0-.238-.048h-.446v1.983h.733a1.064,1.064,0,0,0,.2-.016.436.436,0,0,0,.146-.058.54.54,0,0,0,.123-.111,1.06,1.06,0,0,0,.1-.152,1.8,1.8,0,0,0,.1-.216c.033-.089.07-.212.111-.368h.463l-.064,1.355h-3.319v-.245a.9.9,0,0,0,.2-.08.258.258,0,0,0,.108-.119.586.586,0,0,0,.046-.193c.006-.078.01-.176.01-.3v-3.2q0-.174-.008-.293a.536.536,0,0,0-.044-.193.288.288,0,0,0-.109-.121.792.792,0,0,0-.2-.084v-.245Z" transform="translate(-595.64 -169.085)" fill="#fff"/>
    <path id="Path_141" data-name="Path 141" d="M618.418,169.145v.245a1.191,1.191,0,0,0-.191.082.305.305,0,0,0-.094.089.433.433,0,0,0-.059.169,2.179,2.179,0,0,0-.02.347v4.137H617.2l-1.519-2.889q-.307-.586-.452-.921h-.03q.034.8.034,1.686v1.2a2.051,2.051,0,0,0,.025.39.348.348,0,0,0,.091.176.6.6,0,0,0,.248.117v.245h-1.276v-.245a.827.827,0,0,0,.2-.082.273.273,0,0,0,.108-.12.572.572,0,0,0,.046-.191c.007-.077.01-.173.01-.289v-3.212a2.2,2.2,0,0,0-.022-.385.346.346,0,0,0-.091-.176.583.583,0,0,0-.249-.123v-.245h1.367l1.2,2.284q.111.216.291.583t.317.695h.054q-.038-.887-.037-1.938v-.691a2.486,2.486,0,0,0-.017-.349.44.44,0,0,0-.052-.163.3.3,0,0,0-.094-.093.972.972,0,0,0-.2-.082v-.245Z" transform="translate(-602.078 -169.085)" fill="#fff"/>
    <path id="Path_142" data-name="Path 142" d="M628.5,172.9a1.341,1.341,0,0,0,.282.659.743.743,0,0,0,.579.217.831.831,0,0,0,.358-.074.573.573,0,0,0,.255-.239.817.817,0,0,0,.1-.414.945.945,0,0,0-.078-.4.986.986,0,0,0-.25-.321,2.763,2.763,0,0,0-.479-.323,4.242,4.242,0,0,1-.476-.3,1.894,1.894,0,0,1-.362-.343,1.463,1.463,0,0,1-.233-.41,1.43,1.43,0,0,1-.083-.5,1.4,1.4,0,0,1,.206-.776,1.275,1.275,0,0,1,.6-.485,2.3,2.3,0,0,1,.9-.166,4.525,4.525,0,0,1,.574.036,5.3,5.3,0,0,1,.624.124v1.077h-.462a1.648,1.648,0,0,0-.164-.466.649.649,0,0,0-.248-.255.865.865,0,0,0-.719-.007.558.558,0,0,0-.239.221.674.674,0,0,0-.088.355.853.853,0,0,0,.076.373.953.953,0,0,0,.255.308,3.565,3.565,0,0,0,.52.344,3.355,3.355,0,0,1,.653.467,1.489,1.489,0,0,1,.351.5,1.6,1.6,0,0,1,.113.626,1.566,1.566,0,0,1-.193.793,1.27,1.27,0,0,1-.56.516,1.91,1.91,0,0,1-.851.18,6.284,6.284,0,0,1-.717-.043,5.351,5.351,0,0,1-.7-.125V172.9Z" transform="translate(-609.266 -169.02)" fill="#fff"/>
    <path id="Path_143" data-name="Path 143" d="M643.476,173.282a2.261,2.261,0,0,0,.022.392.349.349,0,0,0,.089.176.534.534,0,0,0,.246.119v.245h-1.762v-.245a.655.655,0,0,0,.253-.111.311.311,0,0,0,.081-.158,2.321,2.321,0,0,0,.023-.418v-1.489H640.9v1.489q0,.13.007.241a.863.863,0,0,0,.027.182.345.345,0,0,0,.059.119.334.334,0,0,0,.107.083.773.773,0,0,0,.165.061v.245H639.5v-.245a.9.9,0,0,0,.2-.08.258.258,0,0,0,.108-.119.59.59,0,0,0,.046-.193c.007-.078.01-.176.01-.3v-3.2q0-.174-.009-.293a.527.527,0,0,0-.044-.193.288.288,0,0,0-.108-.121.8.8,0,0,0-.2-.084v-.245h1.773v.245a.6.6,0,0,0-.245.123.374.374,0,0,0-.093.176,1.956,1.956,0,0,0-.027.4v1.24h1.526v-1.24a2.275,2.275,0,0,0-.022-.392.346.346,0,0,0-.088-.178.589.589,0,0,0-.248-.125v-.245h1.762v.245a.741.741,0,0,0-.216.095.278.278,0,0,0-.1.129.676.676,0,0,0-.037.174c-.006.065-.009.163-.009.3Z" transform="translate(-615.27 -169.085)" fill="#fff"/>
    <path id="Path_144" data-name="Path 144" d="M655.957,174.209a1.772,1.772,0,0,1-1.49-.639,3.076,3.076,0,0,1-.5-1.913,3.785,3.785,0,0,1,.241-1.428,1.89,1.89,0,0,1,.711-.9,1.986,1.986,0,0,1,1.117-.309,1.821,1.821,0,0,1,1.516.637,3,3,0,0,1,.507,1.892,4.236,4.236,0,0,1-.15,1.205,2.237,2.237,0,0,1-.427.826,1.668,1.668,0,0,1-.664.476A2.339,2.339,0,0,1,655.957,174.209Zm-.915-2.651a4.3,4.3,0,0,0,.244,1.669.8.8,0,0,0,.748.548.663.663,0,0,0,.442-.154,1.091,1.091,0,0,0,.3-.431,2.573,2.573,0,0,0,.162-.656,6.473,6.473,0,0,0,.049-.832,6.068,6.068,0,0,0-.106-1.238,1.72,1.72,0,0,0-.321-.754.685.685,0,0,0-.548-.255.772.772,0,0,0-.727.515A3.989,3.989,0,0,0,655.043,171.557Z" transform="translate(-622.852 -169.02)" fill="#fff"/>
    <path id="Path_145" data-name="Path 145" d="M671.671,173.227c.088.149.162.267.221.355a1.834,1.834,0,0,0,.157.206.577.577,0,0,0,.133.114.86.86,0,0,0,.174.072v.241h-1.83v-.245a.278.278,0,0,0,.156-.061.158.158,0,0,0,.041-.113.44.44,0,0,0-.016-.117.946.946,0,0,0-.072-.169q-.057-.111-.233-.408l-.517-.877a2.424,2.424,0,0,0-.164-.249.489.489,0,0,0-.138-.129.4.4,0,0,0-.191-.039h-.068v1.474c0,.087,0,.167.007.241a.859.859,0,0,0,.027.182.353.353,0,0,0,.059.119.333.333,0,0,0,.107.083.79.79,0,0,0,.166.061v.245h-1.773v-.245a.916.916,0,0,0,.2-.08.261.261,0,0,0,.108-.119.586.586,0,0,0,.045-.193c.007-.078.01-.176.01-.3v-3.2q0-.174-.009-.293a.544.544,0,0,0-.044-.193.286.286,0,0,0-.108-.121.8.8,0,0,0-.2-.084v-.245h1.773v.245a.693.693,0,0,0-.208.09.3.3,0,0,0-.1.115.564.564,0,0,0-.046.17,2.686,2.686,0,0,0-.013.316V171.4h.07a.665.665,0,0,0,.247-.038.572.572,0,0,0,.188-.134q.1-.1.371-.451t.4-.546a1.676,1.676,0,0,0,.168-.316.711.711,0,0,0,.046-.247.267.267,0,0,0-.079-.2.332.332,0,0,0-.225-.078v-.245h1.725v.253a.748.748,0,0,0-.219.078,1.057,1.057,0,0,0-.209.169,4.122,4.122,0,0,0-.3.343l-1.013,1.248Z" transform="translate(-630.16 -169.085)" fill="#fff"/>
    <path id="Path_146" data-name="Path 146" d="M684.424,170.077a2.358,2.358,0,0,0-.021-.388.351.351,0,0,0-.086-.176.6.6,0,0,0-.25-.123v-.245h1.486v.245a.91.91,0,0,0-.193.08.28.28,0,0,0-.108.119.553.553,0,0,0-.048.193c-.007.078-.01.176-.01.3V172.4a3.682,3.682,0,0,1-.068.771,1.518,1.518,0,0,1-.209.521,1.151,1.151,0,0,1-.353.342,1.477,1.477,0,0,1-.474.186,2.861,2.861,0,0,1-.591.056,2.589,2.589,0,0,1-.81-.11,1.261,1.261,0,0,1-.538-.33,1.363,1.363,0,0,1-.307-.537,2.75,2.75,0,0,1-.1-.813v-2.4c0-.116,0-.214-.009-.293a.537.537,0,0,0-.044-.193.29.29,0,0,0-.108-.121.816.816,0,0,0-.2-.084v-.245h1.772v.245a.736.736,0,0,0-.2.088.31.31,0,0,0-.1.113.547.547,0,0,0-.047.174,2.742,2.742,0,0,0-.013.316v2.451a3.912,3.912,0,0,0,.033.535,1.279,1.279,0,0,0,.123.414.638.638,0,0,0,.248.266.8.8,0,0,0,.409.093.746.746,0,0,0,.513-.152.827.827,0,0,0,.238-.425,3.56,3.56,0,0,0,.069-.815Z" transform="translate(-637.215 -169.085)" fill="#fff"/>
    <path id="Path_147" data-name="Path 147" d="M696.675,173.282q0,.13.006.241a.891.891,0,0,0,.027.182.3.3,0,0,0,.166.2.773.773,0,0,0,.165.061v.245h-1.772v-.245a.928.928,0,0,0,.2-.08.263.263,0,0,0,.108-.119.587.587,0,0,0,.046-.193c.007-.078.01-.176.01-.3v-3.205c0-.119,0-.217-.008-.293a.555.555,0,0,0-.044-.191.273.273,0,0,0-.108-.121.841.841,0,0,0-.2-.082v-.245h1.772v.245a.73.73,0,0,0-.2.088.305.305,0,0,0-.1.113.535.535,0,0,0-.047.174,2.636,2.636,0,0,0-.013.316Z" transform="translate(-644.488 -169.085)" fill="#fff"/>
    <path id="Path_148" data-name="Path 148" d="M707.643,169.2v1.076h-.459a1.307,1.307,0,0,0-.257-.618.584.584,0,0,0-.459-.2.866.866,0,0,0-.807.563,3.96,3.96,0,0,0-.274,1.669,3.784,3.784,0,0,0,.25,1.558.811.811,0,0,0,1.135.438.657.657,0,0,0,.248-.273,2.072,2.072,0,0,0,.16-.513h.463v1.125a6.231,6.231,0,0,1-.678.141,4.409,4.409,0,0,1-.638.045,2.127,2.127,0,0,1-1.146-.279,1.635,1.635,0,0,1-.655-.841,4.107,4.107,0,0,1-.211-1.424,3.634,3.634,0,0,1,.248-1.4,2,2,0,0,1,.731-.919,2.03,2.03,0,0,1,1.155-.323,4.341,4.341,0,0,1,.618.041A3.952,3.952,0,0,1,707.643,169.2Z" transform="translate(-649.228 -169.02)" fill="#fff"/>
    <path id="Path_149" data-name="Path 149" d="M720.491,173.282a2.327,2.327,0,0,0,.022.392.351.351,0,0,0,.089.176.54.54,0,0,0,.247.119v.245h-1.763v-.245a.663.663,0,0,0,.253-.111.313.313,0,0,0,.081-.158,2.3,2.3,0,0,0,.024-.418v-1.489h-1.526v1.489c0,.087,0,.167.006.241a.892.892,0,0,0,.027.182.3.3,0,0,0,.166.2.781.781,0,0,0,.165.061v.245h-1.772v-.245a.927.927,0,0,0,.2-.08.262.262,0,0,0,.108-.119.585.585,0,0,0,.046-.193c.007-.078.01-.176.01-.3v-3.2c0-.116,0-.214-.008-.293a.544.544,0,0,0-.044-.193.289.289,0,0,0-.108-.121.809.809,0,0,0-.2-.084v-.245h1.772v.245a.6.6,0,0,0-.244.123.371.371,0,0,0-.093.176,1.929,1.929,0,0,0-.027.4v1.24h1.526v-1.24a2.367,2.367,0,0,0-.022-.392.35.35,0,0,0-.088-.178.586.586,0,0,0-.248-.125v-.245h1.763v.245a.734.734,0,0,0-.216.095.273.273,0,0,0-.1.129.659.659,0,0,0-.037.174c-.006.065-.009.163-.009.3Z" transform="translate(-655.618 -169.085)" fill="#fff"/>
    <path id="Path_150" data-name="Path 150" d="M732.32,173.282q0,.13.007.241a.859.859,0,0,0,.027.182.343.343,0,0,0,.059.119.333.333,0,0,0,.107.083.772.772,0,0,0,.165.061v.245h-1.773v-.245a.9.9,0,0,0,.2-.08.258.258,0,0,0,.108-.119.587.587,0,0,0,.046-.193c.007-.078.01-.176.01-.3v-3.205q0-.179-.009-.293a.534.534,0,0,0-.044-.191.274.274,0,0,0-.108-.121.843.843,0,0,0-.2-.082v-.245h1.773v.245a.736.736,0,0,0-.2.088.3.3,0,0,0-.1.113.558.558,0,0,0-.048.174,2.863,2.863,0,0,0-.013.316Z" transform="translate(-663.163 -169.085)" fill="#fff"/>
    <path id="Path_151" data-name="Path 151" d="M742.817,171.559a1.533,1.533,0,0,1,.721.473,1.156,1.156,0,0,1,.248.745,1.686,1.686,0,0,1-.113.647,1.067,1.067,0,0,1-.344.451,1.511,1.511,0,0,1-.544.258,3.224,3.224,0,0,1-.8.082h-2.08v-.245a.9.9,0,0,0,.2-.08.258.258,0,0,0,.108-.119.573.573,0,0,0,.046-.193c.007-.078.01-.176.01-.3v-3.2q0-.174-.009-.293a.538.538,0,0,0-.043-.193.288.288,0,0,0-.109-.121.8.8,0,0,0-.2-.084v-.245h2.211a3.859,3.859,0,0,1,.618.041,1.623,1.623,0,0,1,.551.193.846.846,0,0,1,.327.349,1.146,1.146,0,0,1,.118.538,1.346,1.346,0,0,1-.918,1.259Zm-1.05-.193a1.092,1.092,0,0,0,.53-.108.707.707,0,0,0,.292-.307,1.235,1.235,0,0,0,.1-.548.94.94,0,0,0-.108-.488.6.6,0,0,0-.307-.259,1.369,1.369,0,0,0-.5-.078q-.236,0-.459.019v1.767Zm-.449,2.4q.2.011.459.011a1.375,1.375,0,0,0,.528-.087.642.642,0,0,0,.323-.3,1.291,1.291,0,0,0,.115-.6,1.525,1.525,0,0,0-.061-.459.727.727,0,0,0-.182-.309.737.737,0,0,0-.291-.17,1.412,1.412,0,0,0-.422-.054h-.469Z" transform="translate(-667.877 -169.085)" fill="#fff"/>
    <path id="Path_152" data-name="Path 152" d="M755.12,172.615h-1.441l-.111.353a2.946,2.946,0,0,0-.078.288,1.367,1.367,0,0,0-.03.3.343.343,0,0,0,.351.39v.245h-1.442v-.245a.4.4,0,0,0,.219-.1.784.784,0,0,0,.172-.223,2.482,2.482,0,0,0,.166-.4l1.408-4.126h.9l1.114,4.159a3.224,3.224,0,0,0,.125.4.533.533,0,0,0,.132.189.508.508,0,0,0,.226.106v.245h-1.864v-.245a.43.43,0,0,0,.26-.108.329.329,0,0,0,.085-.241,1.57,1.57,0,0,0-.024-.256q-.024-.141-.078-.357Zm-1.313-.434h1.215l-.54-2.091Z" transform="translate(-674.404 -169.057)" fill="#fff"/>
  </g>
  <g id="Group_249" data-name="Group 249" transform="translate(67.527 70.694)">
    <path id="Path_153" data-name="Path 153" d="M590.6,191.693h-1.773v-.245a.933.933,0,0,0,.2-.08.266.266,0,0,0,.108-.119.577.577,0,0,0,.045-.194c.007-.078.01-.176.01-.3v-3.2c0-.116,0-.214-.009-.293a.548.548,0,0,0-.044-.193.292.292,0,0,0-.108-.121.8.8,0,0,0-.2-.083v-.245h1.968a3.2,3.2,0,0,1,.677.061,1.621,1.621,0,0,1,.488.187,1.047,1.047,0,0,1,.3.262,1.168,1.168,0,0,1,.188.368,1.623,1.623,0,0,1,.066.488,1.518,1.518,0,0,1-.117.624,1.234,1.234,0,0,1-.314.433,2.188,2.188,0,0,1-.528.325v.037a1.2,1.2,0,0,1,.413.318,2.1,2.1,0,0,1,.3.5l.212.505a2.08,2.08,0,0,0,.282.507.568.568,0,0,0,.333.206v.245h-1.3a5.694,5.694,0,0,1-.442-.884l-.264-.635a2.241,2.241,0,0,0-.2-.4.5.5,0,0,0-.174-.164.651.651,0,0,0-.275-.044h-.2v1.2a2.183,2.183,0,0,0,.024.39.343.343,0,0,0,.091.178.61.61,0,0,0,.25.119Zm-.365-4.627v2.065h.334a1.079,1.079,0,0,0,.446-.08.687.687,0,0,0,.279-.223.862.862,0,0,0,.142-.336,2.164,2.164,0,0,0,.039-.424,1.142,1.142,0,0,0-.216-.757.8.8,0,0,0-.642-.252C590.42,187.059,590.292,187.061,590.232,187.066Z" transform="translate(-588.824 -186.564)" fill="#fff"/>
    <path id="Path_154" data-name="Path 154" d="M605.7,186.624V187.8h-.463a2.371,2.371,0,0,0-.189-.477.65.65,0,0,0-.186-.2.7.7,0,0,0-.368-.072h-.736v1.783h.446a.486.486,0,0,0,.233-.047.352.352,0,0,0,.14-.154,1.454,1.454,0,0,0,.106-.334h.382v1.507h-.382a1.425,1.425,0,0,0-.1-.329.382.382,0,0,0-.137-.161.463.463,0,0,0-.238-.049h-.446v1.983h.733a1.029,1.029,0,0,0,.2-.016.428.428,0,0,0,.145-.058.564.564,0,0,0,.123-.111.971.971,0,0,0,.1-.152,1.577,1.577,0,0,0,.1-.216,3.678,3.678,0,0,0,.111-.367h.463l-.064,1.355h-3.319v-.245a.948.948,0,0,0,.2-.08.267.267,0,0,0,.108-.119.588.588,0,0,0,.046-.194c.007-.078.01-.176.01-.3v-3.2c0-.116,0-.214-.008-.293a.55.55,0,0,0-.044-.193.293.293,0,0,0-.108-.121.794.794,0,0,0-.2-.083v-.245Z" transform="translate(-595.912 -186.564)" fill="#fff"/>
    <path id="Path_155" data-name="Path 155" d="M617.9,186.674v1.077h-.458a1.306,1.306,0,0,0-.257-.618.585.585,0,0,0-.459-.2.867.867,0,0,0-.807.563,3.966,3.966,0,0,0-.273,1.669,3.784,3.784,0,0,0,.25,1.558.811.811,0,0,0,1.134.439.655.655,0,0,0,.249-.273,2.075,2.075,0,0,0,.16-.513h.462V191.5a6.425,6.425,0,0,1-.678.141,4.476,4.476,0,0,1-.638.044,2.125,2.125,0,0,1-1.146-.279,1.632,1.632,0,0,1-.655-.841,4.108,4.108,0,0,1-.211-1.424,3.637,3.637,0,0,1,.248-1.4,1.993,1.993,0,0,1,.731-.919,2.027,2.027,0,0,1,1.155-.323,4.273,4.273,0,0,1,.618.041A3.864,3.864,0,0,1,617.9,186.674Z" transform="translate(-602.313 -186.499)" fill="#fff"/>
    <path id="Path_156" data-name="Path 156" d="M628.54,191.693h-1.772v-.245a.953.953,0,0,0,.2-.08.268.268,0,0,0,.108-.119.59.59,0,0,0,.046-.194c.007-.078.01-.176.01-.3v-3.2c0-.116,0-.214-.008-.293a.551.551,0,0,0-.044-.193.293.293,0,0,0-.108-.121.8.8,0,0,0-.2-.083v-.245h1.968a3.192,3.192,0,0,1,.677.061,1.618,1.618,0,0,1,.488.187,1.048,1.048,0,0,1,.3.262,1.167,1.167,0,0,1,.187.368,1.622,1.622,0,0,1,.066.488,1.517,1.517,0,0,1-.117.624,1.24,1.24,0,0,1-.314.433,2.2,2.2,0,0,1-.528.325v.037a1.19,1.19,0,0,1,.413.318,2.082,2.082,0,0,1,.3.5l.213.505a2.05,2.05,0,0,0,.282.507.566.566,0,0,0,.333.206v.245h-1.3a5.656,5.656,0,0,1-.442-.884l-.264-.635a2.236,2.236,0,0,0-.2-.4.5.5,0,0,0-.174-.164.652.652,0,0,0-.275-.044h-.2v1.2a2.179,2.179,0,0,0,.023.39.342.342,0,0,0,.091.178.608.608,0,0,0,.249.119Zm-.364-4.627v2.065h.334a1.076,1.076,0,0,0,.445-.08.684.684,0,0,0,.279-.223.856.856,0,0,0,.142-.336,2.131,2.131,0,0,0,.039-.424,1.14,1.14,0,0,0-.216-.757.8.8,0,0,0-.642-.252Q628.267,187.059,628.176,187.066Z" transform="translate(-608.703 -186.564)" fill="#fff"/>
    <path id="Path_157" data-name="Path 157" d="M642.765,187.556a2.225,2.225,0,0,0-.022-.388.344.344,0,0,0-.086-.176.6.6,0,0,0-.25-.122v-.245h1.485v.245a.881.881,0,0,0-.192.08.272.272,0,0,0-.108.119.535.535,0,0,0-.048.193c-.007.078-.01.176-.01.3v2.321a3.7,3.7,0,0,1-.067.771,1.509,1.509,0,0,1-.21.522,1.154,1.154,0,0,1-.353.342,1.5,1.5,0,0,1-.474.185,2.867,2.867,0,0,1-.591.056,2.607,2.607,0,0,1-.81-.109,1.272,1.272,0,0,1-.539-.33,1.376,1.376,0,0,1-.308-.537,2.77,2.77,0,0,1-.1-.813v-2.4c0-.116,0-.214-.008-.293a.548.548,0,0,0-.044-.193.294.294,0,0,0-.109-.121.8.8,0,0,0-.2-.083v-.245H641.5v.245a.727.727,0,0,0-.2.087.308.308,0,0,0-.1.113.534.534,0,0,0-.048.175,2.745,2.745,0,0,0-.013.316v2.451a3.832,3.832,0,0,0,.034.535,1.264,1.264,0,0,0,.123.414.64.64,0,0,0,.247.266.8.8,0,0,0,.409.092.748.748,0,0,0,.513-.152.835.835,0,0,0,.238-.426,3.587,3.587,0,0,0,.069-.815Z" transform="translate(-615.49 -186.564)" fill="#fff"/>
    <path id="Path_158" data-name="Path 158" d="M655.014,190.761q0,.131.007.241a.838.838,0,0,0,.027.182.323.323,0,0,0,.059.119.331.331,0,0,0,.106.084.776.776,0,0,0,.165.061v.245h-1.773v-.245a.923.923,0,0,0,.2-.08.263.263,0,0,0,.108-.119.586.586,0,0,0,.046-.194c.006-.078.01-.176.01-.3v-3.2c0-.119,0-.217-.008-.293a.553.553,0,0,0-.044-.191.28.28,0,0,0-.109-.121.837.837,0,0,0-.2-.081v-.245h1.773v.245a.744.744,0,0,0-.2.087.317.317,0,0,0-.1.113.549.549,0,0,0-.047.175,2.722,2.722,0,0,0-.014.316Z" transform="translate(-622.763 -186.564)" fill="#fff"/>
    <path id="Path_159" data-name="Path 159" d="M663.448,191.693v-.245a.812.812,0,0,0,.225-.069.276.276,0,0,0,.123-.121.519.519,0,0,0,.05-.2c.007-.08.01-.18.01-.3v-3.7h-.274a.734.734,0,0,0-.31.052.49.49,0,0,0-.187.163,1.038,1.038,0,0,0-.137.3q-.058.188-.095.355h-.462v-1.3h3.974v1.3H665.9q-.064-.252-.1-.371a1.124,1.124,0,0,0-.083-.2.746.746,0,0,0-.1-.139.425.425,0,0,0-.252-.139,1.24,1.24,0,0,0-.224-.017H664.9v3.7c0,.131,0,.231.01.3a.552.552,0,0,0,.038.166.322.322,0,0,0,.065.1.373.373,0,0,0,.108.07.766.766,0,0,0,.187.05v.245Z" transform="translate(-627.366 -186.564)" fill="#fff"/>
    <path id="Path_160" data-name="Path 160" d="M677.217,190.761q0,.131.006.241a.9.9,0,0,0,.027.182.305.305,0,0,0,.166.2.773.773,0,0,0,.165.061v.245h-1.772v-.245a.955.955,0,0,0,.2-.08.268.268,0,0,0,.108-.119.59.59,0,0,0,.046-.194c.007-.078.01-.176.01-.3v-3.2q0-.179-.008-.293a.561.561,0,0,0-.044-.191.279.279,0,0,0-.108-.121.841.841,0,0,0-.2-.081v-.245h1.772v.245a.73.73,0,0,0-.2.087.313.313,0,0,0-.1.113.533.533,0,0,0-.047.175,2.618,2.618,0,0,0-.013.316Z" transform="translate(-634.396 -186.564)" fill="#fff"/>
    <path id="Path_161" data-name="Path 161" d="M688.887,186.624v.245a1.259,1.259,0,0,0-.19.081.3.3,0,0,0-.094.09.428.428,0,0,0-.059.169,2.132,2.132,0,0,0-.02.348v4.137h-.857l-1.519-2.889q-.307-.586-.453-.921h-.03q.034.8.034,1.686v1.2a2.052,2.052,0,0,0,.025.39.348.348,0,0,0,.091.176.613.613,0,0,0,.249.117v.245h-1.276v-.245a.845.845,0,0,0,.2-.082.278.278,0,0,0,.108-.12.562.562,0,0,0,.045-.191c.007-.077.011-.173.011-.29v-3.212a2.275,2.275,0,0,0-.022-.385.353.353,0,0,0-.091-.176.589.589,0,0,0-.249-.122v-.245h1.367l1.2,2.284q.111.216.29.583t.317.695h.055q-.038-.887-.038-1.938v-.691a2.416,2.416,0,0,0-.017-.349.428.428,0,0,0-.052-.163.3.3,0,0,0-.094-.093.978.978,0,0,0-.2-.081v-.245Z" transform="translate(-639.098 -186.564)" fill="#fff"/>
    <path id="Path_162" data-name="Path 162" d="M702.158,186.7v1.055H701.7a1.86,1.86,0,0,0-.178-.481.645.645,0,0,0-.256-.252.856.856,0,0,0-.4-.084.869.869,0,0,0-.591.225,1.507,1.507,0,0,0-.405.717,4.386,4.386,0,0,0-.149,1.246,5.639,5.639,0,0,0,.1,1.127,1.815,1.815,0,0,0,.3.741.617.617,0,0,0,.505.263.506.506,0,0,0,.438-.195,1.071,1.071,0,0,0,.141-.622v-.14a3.292,3.292,0,0,0-.017-.4.5.5,0,0,0-.052-.18.292.292,0,0,0-.093-.1,1,1,0,0,0-.2-.086v-.245h1.729v.245a.52.52,0,0,0-.23.127.4.4,0,0,0-.083.187,1.934,1.934,0,0,0-.022.329v1.4l-.486.112-.229-.268a1.612,1.612,0,0,1-.922.271,1.734,1.734,0,0,1-1.47-.633,3.136,3.136,0,0,1-.484-1.918,3.748,3.748,0,0,1,.172-1.188,2.211,2.211,0,0,1,.478-.834,1.876,1.876,0,0,1,.688-.468,2.285,2.285,0,0,1,.822-.147A4.455,4.455,0,0,1,702.158,186.7Z" transform="translate(-646.357 -186.499)" fill="#fff"/>
  </g>
  <g id="Group_250" data-name="Group 250" transform="translate(67.571 15.782)">
    <path id="Path_163" data-name="Path 163" d="M589.672,71.224h.658v1.285h.5v.71h-.5V74.61c.172-.075.24-.112.4-.187l.045.71c-.217.127-.291.165-.441.239V77.7a.481.481,0,0,1-.5.546h-.74l-.1-.777h.531c.15,0,.15-.022.15-.194V75.686c-.291.127-.433.187-.673.277l-.082-.807c.291-.09.456-.149.755-.269V73.219h-.68v-.71h.68Zm4.582,6.645a5.8,5.8,0,0,1-1.263-1.772v2.146h-.62V76.18a7.236,7.236,0,0,1-1.473,1.69l-.366-.666a6.237,6.237,0,0,0,1.742-1.876h-1.391v-.71h1.488v-.53h.62v.53h1.585v.71h-1.428a4.318,4.318,0,0,0,1.494,1.847Zm.225-5.981a11.8,11.8,0,0,1-3.446.434l-.1-.665a9.549,9.549,0,0,0,3.229-.433Zm-3.133,2.258a8.924,8.924,0,0,0-.4-1.308l.553-.217a10.635,10.635,0,0,1,.419,1.308Zm1.122-.277a6.351,6.351,0,0,0-.329-1.294l.613-.187a8.392,8.392,0,0,1,.359,1.323Zm.844.074a8.581,8.581,0,0,0,.658-1.749l.65.254a10.436,10.436,0,0,1-.747,1.779Z" transform="translate(-588.917 -71.194)" fill="#fff"/>
    <path id="Path_164" data-name="Path 164" d="M615.458,78.536h-.665V76.324h-1.338a4.415,4.415,0,0,1-.725,2.22l-.553-.68a3.752,3.752,0,0,0,.658-2.4V71.9h4.717v6.063c0,.239-.075.643-.538.643H616.2l-.075-.777h.553c.157,0,.164-.074.164-.2v-1.3h-1.383Zm-.665-5.89h-1.285v1.106h1.285Zm0,1.839h-1.285v1.106h1.285Zm2.048-.733V72.646h-1.383v1.106Zm0,1.839V74.485h-1.383v1.106Z" transform="translate(-601.103 -71.547)" fill="#fff"/>
    <path id="Path_165" data-name="Path 165" d="M640.32,74.45a7.822,7.822,0,0,1-1.466,2.123,4.45,4.45,0,0,0,2.25.748l-.269.837a5.681,5.681,0,0,1-2.564-1.084,6.839,6.839,0,0,1-2.482,1.121l-.307-.845a5.826,5.826,0,0,0,2.2-.792,5.792,5.792,0,0,1-1.1-1.577l.56-.4a5.912,5.912,0,0,0,1.136,1.51,5.778,5.778,0,0,0,1.219-1.66h-3.566V73.7h2.011v-.979h-2.452v-.747h2.452v-.815h.688v.815H641.1v.747H638.63V73.7h1.69Z" transform="translate(-613.313 -71.161)" fill="#fff"/>
    <path id="Path_166" data-name="Path 166" d="M659.328,71.2h.666v1.293h.479v.71h-.479v1.375c.164-.075.247-.119.426-.217l-.022.747a3.7,3.7,0,0,1-.4.239v2.28c0,.583-.337.583-.524.583h-.7l-.068-.77h.479c.127,0,.15-.022.15-.224V75.668a5.5,5.5,0,0,1-.658.247l-.052-.822c.224-.06.389-.112.71-.224V73.2h-.658v-.71h.658Zm4.627,4.941a2.8,2.8,0,0,1-.718,1.061,3,3,0,0,0,1.151.239l-.3.77a4.163,4.163,0,0,1-1.42-.561,4.853,4.853,0,0,1-1.234.561l-.247-.74a2.733,2.733,0,0,0,.9-.269,2.053,2.053,0,0,1-.464-.6l.531-.329a1.5,1.5,0,0,0,.479.568,2.627,2.627,0,0,0,.613-.7H661.72a6.284,6.284,0,0,1-1.136,2.071l-.464-.523a5.573,5.573,0,0,0,1.234-2.594h-.822v-.635h.9c.015-.172.022-.217.03-.464h-.807v-.628h2.415a9.39,9.39,0,0,0,.523-1.315l.606.269a6.229,6.229,0,0,1-.427,1.046h.389v.628h-2.086c-.008.284-.015.337-.022.464h2.227v.635h-2.3c-.045.2-.06.292-.1.478h2.078Zm.232-4.291a11.416,11.416,0,0,1-3.521.5l-.2-.71a8.891,8.891,0,0,0,3.483-.478Zm-3.2,1.51c-.06-.247-.142-.553-.239-.83l.65-.165a5.251,5.251,0,0,1,.231.837Zm1.136-.052c-.052-.254-.082-.411-.209-.875l.673-.149a5.633,5.633,0,0,1,.187.875Z" transform="translate(-625.434 -71.161)" fill="#fff"/>
    <path id="Path_167" data-name="Path 167" d="M684.168,75.521a6.441,6.441,0,0,0-1.772-.9l.247-.717a6.586,6.586,0,0,1,1.809.867Zm3.289-1.9c-.725,2.923-1.921,4.172-4.59,4.657l-.18-.912c1.966-.217,3.408-1,4.126-4.209Zm-2.789.1a7.082,7.082,0,0,0-1.809-.867l.247-.688a6.779,6.779,0,0,1,1.854.8Z" transform="translate(-637.891 -71.687)" fill="#fff"/>
    <path id="Path_168" data-name="Path 168" d="M709.505,78.575a17.509,17.509,0,0,0-1.8-2.228,7.811,7.811,0,0,1-2.445,2.228l-.4-.733a7.14,7.14,0,0,0,3.461-4.508h-3.132v-.792h4.081a9.05,9.05,0,0,1-1.144,3.17,15.254,15.254,0,0,1,1.1,1.121c.666.733.792.9.912,1.054Z" transform="translate(-649.657 -71.884)" fill="#fff"/>
    <path id="Path_169" data-name="Path 169" d="M731.086,75.161c-.022,2.781-1.779,3.185-2.527,3.356l-.3-.763c1.2-.224,2.048-.725,2.071-2.571V75h-2.325V74.22h5.016V75h-1.936Zm1.458-2.87v.785h-4.052v-.785Z" transform="translate(-661.786 -71.753)" fill="#fff"/>
    <path id="Path_170" data-name="Path 170" d="M754.426,74.5a14.366,14.366,0,0,1,1.51,3.371l-.74.367c-.082-.314-.135-.471-.194-.658a34.123,34.123,0,0,1-4.172.4l-.082-.875c.127,0,.172,0,.546-.008.09-.291.688-2.407,1.234-5.218l.822.149a45.575,45.575,0,0,1-1.338,5.053c1.085-.045,1.653-.075,2.736-.2a15.46,15.46,0,0,0-.972-2.056Z" transform="translate(-673.701 -71.539)" fill="#fff"/>
  </g>
</svg>
